<svg width="21" height="20" viewBox="0 0 21 20" fill="none" xmlns="http://www.w3.org/2000/svg">
<g id="ri:apple-fill">
<path id="Vector" d="M10.2285 6.0185C9.49847 6.0185 8.36847 5.1885 7.17847 5.2185C5.60847 5.2385 4.16847 6.1285 3.35847 7.5385C1.72847 10.3685 2.93847 14.5485 4.52847 16.8485C5.30847 17.9685 6.22847 19.2285 7.44847 19.1885C8.61847 19.1385 9.05847 18.4285 10.4785 18.4285C11.8885 18.4285 12.2885 19.1885 13.5285 19.1585C14.7885 19.1385 15.5885 18.0185 16.3585 16.8885C17.2485 15.5885 17.6185 14.3285 17.6385 14.2585C17.6085 14.2485 15.1885 13.3185 15.1585 10.5185C15.1385 8.1785 17.0685 7.0585 17.1585 7.0085C16.0585 5.3985 14.3685 5.2185 13.7785 5.1785C12.2385 5.0585 10.9485 6.0185 10.2285 6.0185ZM12.8285 3.6585C13.4785 2.8785 13.9085 1.7885 13.7885 0.708496C12.8585 0.748496 11.7385 1.3285 11.0685 2.1085C10.4685 2.7985 9.94847 3.9085 10.0885 4.9685C11.1185 5.0485 12.1785 4.4385 12.8285 3.6585Z" fill="white"/>
</g>
</svg>
