<svg width="155" height="155" viewBox="0 0 155 155" fill="none" xmlns="http://www.w3.org/2000/svg">
<path opacity="0.8" d="M1.07081 153.929L1.0708 0.999995M16.3637 153.929L16.3637 0.999995M31.6566 153.929L31.6566 0.999995M46.9496 153.929L46.9496 0.999995M62.2425 153.929L62.2425 0.999995M77.5354 153.929L77.5354 0.999995M92.8283 153.929L92.8283 0.999995M108.121 153.929L108.121 0.999995M123.414 153.929L123.414 0.999995M138.707 153.929L138.707 0.999995M154 153.929V0.999995M1 1.0708H153.929M1 16.3637L153.929 16.3637M1 31.6566L153.929 31.6566M1 46.9496L153.929 46.9496M1 62.2425L153.929 62.2425M1 77.5354L153.929 77.5354M1 92.8283L153.929 92.8283M1 108.121L153.929 108.121M1 123.414L153.929 123.414M1 138.707L153.929 138.707M1 154L153.929 154" stroke="url(#paint0_radial_4107_780)" stroke-width="0.234663"/>
<defs>
<radialGradient id="paint0_radial_4107_780" cx="0" cy="0" r="1" gradientUnits="userSpaceOnUse" gradientTransform="translate(77.5 77.5) rotate(-0.120908) scale(89.954)">
<stop stop-color="#191919"/>
<stop offset="1" stop-color="#E9EBF8" stop-opacity="0"/>
</radialGradient>
</defs>
</svg>
