<svg width="21" height="20" viewBox="0 0 21 20" fill="none" xmlns="http://www.w3.org/2000/svg">
<g id="codicon:terminal-linux">
<path id="Vector" d="M17.1011 13.945C17.29 14.0207 17.4529 14.1497 17.5698 14.3162C17.6748 14.4725 17.7486 14.6613 17.7948 14.8825C17.8198 15.0125 17.8498 15.1325 17.8823 15.245C17.9436 15.4558 18.0358 15.6563 18.1561 15.84C18.2148 15.9312 18.2936 16.0312 18.3911 16.1425C18.4748 16.2337 18.5498 16.3512 18.6161 16.4937C18.6772 16.6219 18.71 16.7618 18.7123 16.9037C18.7172 17.0402 18.6763 17.1744 18.5961 17.285C18.5145 17.3924 18.4152 17.485 18.3023 17.5588C18.1523 17.6625 17.9961 17.7537 17.8336 17.8325C17.6711 17.91 17.5086 17.9913 17.3461 18.0763C17.1031 18.192 16.8709 18.3292 16.6523 18.4862C16.4573 18.63 16.2611 18.8113 16.0661 19.0338C15.8388 19.2884 15.5756 19.5086 15.2848 19.6875C15.1363 19.7817 14.9751 19.8541 14.8061 19.9025C14.6436 19.9475 14.4811 19.9775 14.3186 19.99C13.9411 19.99 13.6286 19.925 13.3811 19.795C13.1336 19.665 12.9186 19.4275 12.7361 19.0825C12.6836 18.9837 12.6323 18.9225 12.5798 18.8962C12.4988 18.8619 12.4134 18.8388 12.3261 18.8275L11.3373 18.75C11.0123 18.725 10.6811 18.7113 10.3423 18.7113C10.061 18.7116 9.78012 18.7342 9.50233 18.7787C9.21608 18.825 8.93233 18.88 8.65233 18.945C8.59483 18.9575 8.53608 19.0075 8.47733 19.0912C8.40418 19.1929 8.3222 19.2878 8.23233 19.375C8.11055 19.491 7.96865 19.5837 7.81358 19.6488C7.5926 19.7351 7.35705 19.7779 7.11983 19.775C6.90483 19.775 6.67358 19.7525 6.42608 19.7075C6.19453 19.6672 5.97063 19.5913 5.76233 19.4825C5.38658 19.2903 4.98552 19.1523 4.57108 19.0725C4.17983 19.0013 3.76733 18.935 3.33108 18.8775C3.18649 18.8587 3.04296 18.8324 2.90108 18.7987C2.77001 18.7691 2.64656 18.7125 2.53858 18.6325C2.43949 18.5592 2.35688 18.466 2.29608 18.3587C2.22942 18.2222 2.1956 18.0719 2.19733 17.92C2.19733 17.7175 2.22358 17.5225 2.27608 17.3337C2.32858 17.1462 2.35733 16.9462 2.36358 16.7388C2.36358 16.595 2.35358 16.455 2.33483 16.3188C2.31416 16.1728 2.30081 16.026 2.29483 15.8787C2.29483 15.5475 2.37358 15.3037 2.52983 15.1462C2.68608 14.99 2.91358 14.8663 3.21358 14.775C3.34686 14.7347 3.47237 14.6721 3.58483 14.59C3.68799 14.5122 3.78572 14.4274 3.87733 14.3363C3.97034 14.2428 4.05523 14.1416 4.13108 14.0338C4.20983 13.9225 4.29733 13.8113 4.39483 13.7013C4.41428 13.6762 4.42484 13.6454 4.42483 13.6137C4.42483 13.535 4.42108 13.46 4.41483 13.3888L4.39483 13.1537C4.39483 12.7112 4.46358 12.2662 4.59983 11.8162C4.73733 11.3663 4.91608 10.9288 5.13733 10.4975C5.35823 10.0688 5.60624 9.65464 5.87983 9.2575C6.15233 8.86125 6.42358 8.4925 6.68983 8.15375C7.05148 7.70099 7.33843 7.19334 7.53983 6.65C7.72733 6.13 7.82608 5.5625 7.83233 4.95C7.83233 4.69125 7.81983 4.43375 7.79358 4.18C7.76735 3.92041 7.75442 3.65966 7.75483 3.39875C7.75483 2.8775 7.81358 2.40875 7.92983 1.9925C8.04733 1.575 8.22983 1.2175 8.47733 0.9175C8.72483 0.6175 9.04733 0.39375 9.44358 0.24375C9.84233 0.09375 10.3173 0.0125 10.8698 0C11.5286 0 12.0523 0.13 12.4436 0.39125C12.8336 0.65125 13.1336 0.9925 13.3411 1.41625C13.5498 1.83875 13.6836 2.31125 13.7411 2.8325C13.8011 3.3525 13.8336 3.88 13.8398 4.41375V4.58C13.8398 4.8475 13.8423 5.085 13.8498 5.2925C13.8615 5.71437 13.9575 6.12963 14.1323 6.51375C14.2236 6.715 14.3598 6.93375 14.5423 7.1675C14.8548 7.57875 15.1748 7.9925 15.4998 8.40875C15.8248 8.825 16.1211 9.255 16.3873 9.69625C16.6548 10.14 16.8736 10.6025 17.0423 11.0837C17.2123 11.5662 17.2998 12.0862 17.3061 12.6462C17.3078 13.0878 17.2385 13.5254 17.1011 13.945ZM8.90858 3.77C8.99858 3.77 9.07358 3.7925 9.13358 3.8375C9.19454 3.88656 9.24153 3.95079 9.26983 4.02375C9.3012 4.09882 9.32385 4.17726 9.33733 4.2575C9.34983 4.33625 9.35733 4.4175 9.35733 4.5025C9.35937 4.55619 9.34911 4.60963 9.32733 4.65875C9.30591 4.70025 9.27612 4.73686 9.23983 4.76625L9.12233 4.86375C9.08044 4.89923 9.04155 4.93811 9.00608 4.98C8.9592 5.05298 8.89528 5.11347 8.81983 5.15625C8.74242 5.20119 8.66732 5.25 8.59483 5.3025C8.52559 5.35274 8.46039 5.40832 8.39983 5.46875C8.36956 5.50138 8.34621 5.53979 8.33117 5.58168C8.31613 5.62357 8.30972 5.66807 8.31233 5.7125C8.31233 5.77125 8.34108 5.82 8.39983 5.85875C8.54559 5.95055 8.6612 6.08311 8.73233 6.24C8.79733 6.39 8.86983 6.53625 8.94733 6.68C9.02483 6.8225 9.12608 6.9425 9.24983 7.04125C9.37358 7.13875 9.56608 7.1875 9.82483 7.1875H9.88483C10.1448 7.175 10.3923 7.10625 10.6273 6.9825C10.8611 6.85875 11.0961 6.72875 11.3298 6.59125C11.3705 6.56836 11.4132 6.54912 11.4573 6.53375C11.5027 6.51755 11.5453 6.49436 11.5836 6.465L12.2961 5.90875C12.3085 5.86685 12.3185 5.82428 12.3261 5.78125C12.3337 5.73556 12.3403 5.68971 12.3461 5.64375C12.3483 5.5816 12.3308 5.52036 12.2961 5.46875C12.2641 5.42341 12.2248 5.3837 12.1798 5.35125C12.1298 5.31717 12.0732 5.29416 12.0136 5.28375C11.954 5.27179 11.8955 5.25507 11.8386 5.23375C11.6828 5.20172 11.5338 5.14248 11.3986 5.05875C11.2643 4.97537 11.1198 4.90982 10.9686 4.86375C10.9436 4.85625 10.9236 4.8375 10.9098 4.805C10.8949 4.76651 10.882 4.72729 10.8711 4.6875C10.8582 4.64629 10.8548 4.60271 10.8611 4.56C10.8682 4.52726 10.8647 4.49311 10.8511 4.4625C10.8511 4.385 10.8573 4.30375 10.8711 4.21875C10.8846 4.1327 10.9143 4.04999 10.9586 3.975C10.9967 3.90555 11.0501 3.8457 11.1148 3.8C11.1919 3.75503 11.2794 3.7309 11.3686 3.73C11.5711 3.73 11.7173 3.805 11.8086 3.955C11.8998 4.105 11.9486 4.2675 11.9548 4.4425C11.9564 4.52028 11.9397 4.59736 11.9061 4.6675C11.8727 4.73423 11.8556 4.8079 11.8561 4.8825C11.8561 4.935 11.8736 4.97 11.9061 4.99C11.9454 5.01158 11.9889 5.02478 12.0336 5.02875C12.1836 5.02875 12.2798 4.99375 12.3261 4.9225C12.3787 4.82325 12.4053 4.71231 12.4036 4.6C12.4036 4.45 12.3911 4.28375 12.3661 4.10125C12.3413 3.92469 12.2882 3.7533 12.2086 3.59375C12.1357 3.44392 12.0327 3.31072 11.9061 3.2025C11.7704 3.09473 11.6004 3.03968 11.4273 3.0475C11.0898 3.0475 10.8448 3.13125 10.6948 3.30125C10.5448 3.47 10.4673 3.72375 10.4611 4.0625C10.4611 4.16 10.4673 4.2575 10.4798 4.355C10.4923 4.45375 10.4998 4.55125 10.4998 4.64875C10.4998 4.68125 10.4961 4.6975 10.4898 4.6975C10.4695 4.69309 10.4498 4.68638 10.4311 4.6775C10.3921 4.66171 10.3534 4.64546 10.3148 4.62875C10.267 4.60857 10.2177 4.59227 10.1673 4.58C10.0843 4.55982 9.99798 4.55642 9.91358 4.57C9.86175 4.57657 9.80957 4.57991 9.75733 4.58C9.66608 4.58 9.61983 4.56375 9.61983 4.53125C9.61983 4.43375 9.61483 4.31 9.60108 4.16C9.58858 4.01 9.55608 3.86 9.50358 3.71C9.45993 3.57654 9.394 3.45144 9.30858 3.34C9.22983 3.2425 9.11358 3.19 8.95733 3.18375C8.85237 3.18133 8.75059 3.21989 8.67358 3.29125C8.59334 3.36548 8.52429 3.45096 8.46858 3.545C8.40868 3.64656 8.37197 3.7601 8.36108 3.8775C8.35059 3.98195 8.33767 4.08615 8.32233 4.19C8.32734 4.36245 8.3568 4.53332 8.40983 4.6975C8.44233 4.80125 8.47858 4.8925 8.51733 4.97125C8.55608 5.04875 8.60233 5.0875 8.65483 5.0875C8.68608 5.0875 8.72983 5.065 8.78108 5.02C8.83358 4.97375 8.85983 4.9325 8.85983 4.8925C8.85983 4.8725 8.84983 4.86 8.82983 4.85375C8.81092 4.84724 8.79108 4.84386 8.77108 4.84375C8.72608 4.84375 8.68608 4.82125 8.65358 4.775C8.62008 4.72708 8.59396 4.67441 8.57608 4.61875C8.55557 4.55738 8.53598 4.49571 8.51733 4.43375C8.4784 4.2651 8.50287 4.08802 8.58608 3.93625C8.64483 3.83125 8.75233 3.77625 8.90858 3.77ZM6.77858 18.975C6.93483 18.975 7.08858 18.9625 7.23858 18.935C7.38707 18.9095 7.5295 18.8565 7.65858 18.7787C7.78236 18.7071 7.88366 18.6024 7.95108 18.4762C8.0222 18.3298 8.0622 18.1702 8.06858 18.0075C8.06859 17.8912 8.04872 17.7758 8.00983 17.6663C7.97011 17.5545 7.91409 17.4492 7.84358 17.3538C7.76643 17.2315 7.68168 17.1142 7.58983 17.0025C7.49793 16.8904 7.41318 16.7727 7.33608 16.65C7.21451 16.4713 7.09367 16.2922 6.97358 16.1125C6.85733 15.9375 6.73983 15.7525 6.62358 15.5562C6.5208 15.3899 6.42284 15.2207 6.32983 15.0487C6.23425 14.8732 6.12297 14.7067 5.99733 14.5512C5.91799 14.4522 5.82643 14.3636 5.72483 14.2875C5.62045 14.2091 5.49287 14.1677 5.36233 14.17C5.22615 14.168 5.09415 14.217 4.99233 14.3075C4.87596 14.4089 4.7681 14.5197 4.66983 14.6388C4.55457 14.7738 4.43055 14.9012 4.29858 15.02C4.16108 15.1438 3.98608 15.2413 3.77108 15.3125C3.62558 15.3515 3.49175 15.4253 3.38108 15.5275C3.28983 15.6187 3.24358 15.7588 3.24358 15.9475C3.24358 16.0775 3.25358 16.2075 3.27358 16.3375C3.29233 16.4675 3.30608 16.5988 3.31233 16.7288C3.31233 16.9038 3.28733 17.07 3.23358 17.2262C3.18316 17.374 3.15698 17.5289 3.15608 17.685C3.15608 17.8612 3.21858 17.985 3.34108 18.0562C3.46608 18.1287 3.60483 18.1775 3.76108 18.2025C3.95733 18.2362 4.14233 18.2612 4.31858 18.2812C4.49358 18.3013 4.66608 18.3312 4.83608 18.3687C5.00483 18.4088 5.17358 18.45 5.34358 18.4963C5.51233 18.5413 5.69233 18.6138 5.88108 18.7113C5.91858 18.73 5.97858 18.7537 6.05608 18.7787L6.31983 18.8663C6.41733 18.9 6.50858 18.9263 6.59358 18.945C6.65407 18.9612 6.71606 18.9713 6.77858 18.975ZM10.3536 17.8025C10.5361 17.8025 10.7311 17.7838 10.9398 17.7437C11.3648 17.6641 11.7759 17.5226 12.1598 17.3237C12.3386 17.2326 12.5085 17.1251 12.6673 17.0025C12.6831 16.9847 12.6966 16.965 12.7073 16.9438C12.7198 16.9186 12.7294 16.8922 12.7361 16.865V16.855C12.7748 16.7125 12.8073 16.555 12.8336 16.3862C12.8607 16.2143 12.8836 16.0418 12.9023 15.8687C12.9212 15.6957 12.9442 15.5232 12.9711 15.3512C12.9961 15.1825 13.0198 15.0163 13.0386 14.8538C13.0648 14.6788 13.0973 14.5087 13.1361 14.3463C13.1761 14.1838 13.2273 14.03 13.2923 13.8863C13.3566 13.7447 13.4459 13.616 13.5561 13.5063C13.6843 13.3827 13.829 13.2775 13.9861 13.1938V13.1737L13.9761 13.145C13.9783 13.0787 13.9986 13.0143 14.0348 12.9587C14.0786 12.887 14.1275 12.8185 14.1811 12.7537C14.2331 12.688 14.2961 12.6318 14.3673 12.5875C14.4324 12.5485 14.501 12.5159 14.5723 12.49C14.5329 12.3329 14.4904 12.1766 14.4448 12.0212C14.3996 11.8666 14.3604 11.7102 14.3273 11.5525C14.2953 11.3529 14.2566 11.1545 14.2111 10.9575C14.1749 10.8047 14.1289 10.6544 14.0736 10.5075C14.0176 10.3643 13.9419 10.2297 13.8486 10.1075C13.7523 9.9775 13.6311 9.82 13.4886 9.63875C13.4341 9.57791 13.3848 9.51269 13.3411 9.44375C13.3071 9.36627 13.2876 9.28324 13.2836 9.19875C13.268 9.11329 13.2484 9.02861 13.2248 8.945C13.137 8.62844 13.0361 8.31567 12.9223 8.0075C12.8623 7.84295 12.7904 7.68295 12.7073 7.52875C12.6409 7.40527 12.5692 7.28474 12.4923 7.1675C12.4273 7.07 12.3586 7.02125 12.2873 7.02125C12.1311 7.02125 11.9448 7.08375 11.7298 7.2075C11.5161 7.33125 11.2873 7.4675 11.0473 7.6175C10.8061 7.7675 10.5723 7.9075 10.3436 8.0375C10.1161 8.1675 9.91108 8.22875 9.72858 8.2225C9.53382 8.22237 9.34466 8.15727 9.19108 8.0375C9.02554 7.91137 8.8746 7.76714 8.74108 7.6075C8.60483 7.445 8.49108 7.305 8.39983 7.1875C8.30858 7.07 8.24108 7.005 8.19483 6.9925C8.14358 6.9925 8.11358 7.03125 8.10733 7.10875C8.10037 7.19649 8.09703 7.28448 8.09733 7.3725V7.53875C8.09733 7.57875 8.09108 7.60375 8.07733 7.6175C8.00608 7.7675 7.92733 7.91375 7.84358 8.05625C7.75858 8.2 7.67483 8.34625 7.58983 8.49625C7.42145 8.78451 7.32738 9.11011 7.31608 9.44375C7.31608 9.54125 7.32233 9.63875 7.33608 9.73625C7.34858 9.83375 7.38108 9.92875 7.43358 10.02L7.41358 10.0575C7.36339 10.1272 7.3078 10.1928 7.24733 10.2537C7.18574 10.3165 7.13047 10.3852 7.08233 10.4587C6.84323 10.812 6.67081 11.206 6.57358 11.6213C6.47608 12.0375 6.42358 12.4613 6.41733 12.89C6.41733 13.0013 6.42483 13.1125 6.43733 13.2225C6.44983 13.3337 6.45733 13.4437 6.45733 13.555C6.45695 13.591 6.4536 13.627 6.44733 13.6625C6.44105 13.698 6.4377 13.734 6.43733 13.77C6.57627 13.7857 6.70995 13.8322 6.82858 13.9062C6.97858 13.9913 7.14108 14.0988 7.31608 14.2288C7.49108 14.3588 7.65858 14.5087 7.81483 14.6788C7.97108 14.8475 8.11983 15.0125 8.26358 15.1762C8.40733 15.3387 8.51108 15.5013 8.57608 15.6637C8.64108 15.8263 8.68358 15.96 8.70233 16.0637C8.70569 16.1393 8.69356 16.2148 8.66669 16.2855C8.63982 16.3562 8.59878 16.4207 8.54608 16.475C8.43398 16.5843 8.30146 16.6706 8.15608 16.7288C8.26733 16.9237 8.40358 17.09 8.56608 17.2262C8.72858 17.3638 8.90483 17.4737 9.09358 17.5588C9.28233 17.6437 9.48733 17.705 9.70858 17.7437C9.92983 17.7838 10.1461 17.8025 10.3536 17.8025ZM14.2698 19.19C14.4061 19.19 14.5398 19.17 14.6698 19.1313C14.8668 19.0748 15.0543 18.9892 15.2261 18.8775C15.3961 18.7663 15.5511 18.63 15.6948 18.4662C16.0344 18.0745 16.4498 17.7555 16.9161 17.5287L17.2386 17.3825C17.3492 17.3343 17.4565 17.2787 17.5598 17.2162C17.6344 17.169 17.7036 17.1137 17.7661 17.0513C17.7975 17.0208 17.8224 16.9843 17.8392 16.9439C17.856 16.9034 17.8643 16.86 17.8636 16.8162C17.8637 16.766 17.8534 16.7162 17.8336 16.67C17.8103 16.618 17.7809 16.5689 17.7461 16.5238C17.657 16.3997 17.5723 16.2726 17.4923 16.1425C17.4199 16.0242 17.3576 15.9 17.3061 15.7712L17.1498 15.3813C17.0935 15.2381 17.0475 15.091 17.0123 14.9412C16.9988 14.895 16.9758 14.852 16.9448 14.815C16.882 14.7211 16.7962 14.6447 16.6955 14.5933C16.5949 14.5419 16.4828 14.5171 16.3698 14.5212C16.2532 14.5208 16.1386 14.551 16.0373 14.6088L15.7048 14.795C15.5891 14.8592 15.472 14.9209 15.3536 14.98C15.2384 15.0379 15.1112 15.0679 14.9823 15.0675C14.8671 15.0725 14.7535 15.0386 14.6598 14.9713C14.57 14.8999 14.4966 14.8099 14.4448 14.7075C14.3893 14.6032 14.3404 14.4955 14.2986 14.385L14.1811 14.0625C14.1302 14.1461 14.0716 14.2248 14.0061 14.2975C13.9392 14.372 13.8862 14.458 13.8498 14.5512C13.7648 14.7463 13.7123 14.9637 13.6936 15.205C13.6611 15.5825 13.6186 15.95 13.5661 16.3088C13.5126 16.6745 13.4247 17.0345 13.3036 17.3837C13.269 17.4954 13.2427 17.6095 13.2248 17.725C13.2054 17.8447 13.1921 17.9652 13.1848 18.0863C13.1848 18.405 13.2836 18.6688 13.4786 18.8775C13.6736 19.085 13.9373 19.19 14.2698 19.19Z" fill="white"/>
</g>
</svg>
