<svg width="19" height="22" viewBox="0 0 19 22" fill="none" xmlns="http://www.w3.org/2000/svg">
<g id="aqi.medium">
<g id="Group">
<g id="Vector">
<g filter="url(#filter0_i_7114_64)">
<path d="M9.80888 2.77456C10.3111 2.77456 10.6878 2.38951 10.6878 1.88728C10.6878 1.39341 10.3027 1 9.80888 1C9.32338 1 8.92159 1.40179 8.92159 1.88728C8.92159 2.38114 9.31502 2.77456 9.80888 2.77456ZM5.80776 5.07645C6.30999 5.07645 6.69503 4.69141 6.69503 4.18917C6.69503 3.69531 6.30162 3.3019 5.80776 3.3019C5.33063 3.3019 4.92048 3.70369 4.92048 4.18917C4.92048 4.68304 5.31389 5.07645 5.80776 5.07645ZM13.8016 5.07645C14.3039 5.07645 14.6889 4.69141 14.6889 4.18917C14.6889 3.69531 14.2954 3.3019 13.8016 3.3019C13.3245 3.3019 12.9143 3.70369 12.9143 4.18917C12.9143 4.68304 13.3077 5.07645 13.8016 5.07645ZM1.81501 7.41183C2.31724 7.41183 2.69392 7.02679 2.69392 6.52456C2.69392 6.03906 2.30887 5.64565 1.81501 5.64565C1.32952 5.64565 0.927734 6.04744 0.927734 6.52456C0.927734 7.01841 1.32115 7.41183 1.81501 7.41183ZM9.80888 7.72154C10.4702 7.72154 10.9975 7.1942 10.9975 6.52456C10.9975 5.87165 10.4618 5.33594 9.80888 5.33594C9.15595 5.33594 8.61188 5.88002 8.61188 6.52456C8.61188 7.18583 9.14759 7.72154 9.80888 7.72154ZM17.7692 7.41183C18.2714 7.41183 18.6565 7.02679 18.6565 6.52456C18.6565 6.03069 18.2631 5.64565 17.7692 5.64565C17.2837 5.64565 16.8819 6.04744 16.8819 6.52456C16.8819 7.01841 17.2754 7.41183 17.7692 7.41183ZM5.80776 10.0401C6.4774 10.0401 7.00474 9.51286 7.00474 8.84321C7.00474 8.18193 6.46903 7.64621 5.80776 7.64621C5.16323 7.64621 4.61914 8.19864 4.61914 8.84321C4.61914 9.50443 5.15486 10.0401 5.80776 10.0401ZM13.8016 10.0401C14.4712 10.0401 14.9986 9.51286 14.9986 8.84321C14.9986 8.18193 14.4629 7.64621 13.8016 7.64621C13.1571 7.64621 12.613 8.19864 12.613 8.84321C12.613 9.50443 13.1487 10.0401 13.8016 10.0401ZM1.81501 12.0575C2.30887 12.0575 2.69392 11.6641 2.69392 11.1702C2.69392 10.6764 2.30887 10.2829 1.81501 10.2829C1.32952 10.2829 0.927734 10.6847 0.927734 11.1702C0.927734 11.6641 1.32115 12.0575 1.81501 12.0575ZM9.80888 12.5681C10.5873 12.5681 11.2067 11.9486 11.2067 11.1702C11.2067 10.4001 10.5706 9.77229 9.80888 9.77229C9.04716 9.77229 8.41102 10.4085 8.41102 11.1702C8.41102 11.9319 9.03881 12.5681 9.80888 12.5681ZM17.7692 12.0575C18.2714 12.0575 18.6565 11.6724 18.6565 11.1702C18.6565 10.6764 18.2631 10.2829 17.7692 10.2829C17.2837 10.2829 16.8819 10.6847 16.8819 11.1702C16.8819 11.6641 17.2754 12.0575 17.7692 12.0575ZM5.80776 14.6942C6.4774 14.6942 7.00474 14.1669 7.00474 13.4972C7.00474 12.8359 6.46903 12.3002 5.80776 12.3002C5.16323 12.3002 4.61914 12.8443 4.61914 13.4972C4.61914 14.1501 5.15486 14.6942 5.80776 14.6942ZM13.8016 14.6942C14.4712 14.6942 14.9986 14.1669 14.9986 13.4972C14.9986 12.8359 14.4629 12.3002 13.8016 12.3002C13.1571 12.3002 12.613 12.8443 12.613 13.4972C12.613 14.1501 13.1487 14.6942 13.8016 14.6942ZM1.81501 16.6948C2.31724 16.6948 2.69392 16.3097 2.69392 15.8075C2.69392 15.322 2.30887 14.9286 1.81501 14.9286C1.32952 14.9286 0.927734 15.3304 0.927734 15.8075C0.927734 16.3014 1.32115 16.6948 1.81501 16.6948ZM9.80888 17.0044C10.4702 17.0044 10.9975 16.4771 10.9975 15.8075C10.9975 15.1546 10.4618 14.6189 9.80888 14.6189C9.16431 14.6189 8.61188 15.1629 8.61188 15.8075C8.61188 16.4687 9.14759 17.0044 9.80888 17.0044ZM17.7692 16.6948C18.2714 16.6948 18.6565 16.3181 18.6565 15.8075C18.6565 15.322 18.2631 14.9286 17.7692 14.9286C17.2837 14.9286 16.8819 15.3304 16.8819 15.8075C16.8819 16.3014 17.2754 16.6948 17.7692 16.6948ZM5.80776 19.0301C6.30999 19.0301 6.69503 18.6534 6.69503 18.1512C6.69503 17.6574 6.30162 17.2639 5.80776 17.2639C5.33063 17.2639 4.92048 17.6657 4.92048 18.1512C4.92048 18.6451 5.31389 19.0301 5.80776 19.0301ZM13.8016 19.0301C14.3039 19.0301 14.6889 18.6534 14.6889 18.1512C14.6889 17.6574 14.2954 17.2639 13.8016 17.2639C13.3245 17.2639 12.9143 17.6657 12.9143 18.1512C12.9143 18.6451 13.3077 19.0301 13.8016 19.0301ZM9.80888 21.3404C10.3111 21.3404 10.6878 20.9554 10.6878 20.4531C10.6878 19.9593 10.3027 19.5659 9.80888 19.5659C9.32338 19.5659 8.92159 19.9676 8.92159 20.4531C8.92159 20.947 9.31502 21.3404 9.80888 21.3404Z" fill="#1A1A1A"/>
<path d="M9.80888 2.77456C10.3111 2.77456 10.6878 2.38951 10.6878 1.88728C10.6878 1.39341 10.3027 1 9.80888 1C9.32338 1 8.92159 1.40179 8.92159 1.88728C8.92159 2.38114 9.31502 2.77456 9.80888 2.77456ZM5.80776 5.07645C6.30999 5.07645 6.69503 4.69141 6.69503 4.18917C6.69503 3.69531 6.30162 3.3019 5.80776 3.3019C5.33063 3.3019 4.92048 3.70369 4.92048 4.18917C4.92048 4.68304 5.31389 5.07645 5.80776 5.07645ZM13.8016 5.07645C14.3039 5.07645 14.6889 4.69141 14.6889 4.18917C14.6889 3.69531 14.2954 3.3019 13.8016 3.3019C13.3245 3.3019 12.9143 3.70369 12.9143 4.18917C12.9143 4.68304 13.3077 5.07645 13.8016 5.07645ZM1.81501 7.41183C2.31724 7.41183 2.69392 7.02679 2.69392 6.52456C2.69392 6.03906 2.30887 5.64565 1.81501 5.64565C1.32952 5.64565 0.927734 6.04744 0.927734 6.52456C0.927734 7.01841 1.32115 7.41183 1.81501 7.41183ZM9.80888 7.72154C10.4702 7.72154 10.9975 7.1942 10.9975 6.52456C10.9975 5.87165 10.4618 5.33594 9.80888 5.33594C9.15595 5.33594 8.61188 5.88002 8.61188 6.52456C8.61188 7.18583 9.14759 7.72154 9.80888 7.72154ZM17.7692 7.41183C18.2714 7.41183 18.6565 7.02679 18.6565 6.52456C18.6565 6.03069 18.2631 5.64565 17.7692 5.64565C17.2837 5.64565 16.8819 6.04744 16.8819 6.52456C16.8819 7.01841 17.2754 7.41183 17.7692 7.41183ZM5.80776 10.0401C6.4774 10.0401 7.00474 9.51286 7.00474 8.84321C7.00474 8.18193 6.46903 7.64621 5.80776 7.64621C5.16323 7.64621 4.61914 8.19864 4.61914 8.84321C4.61914 9.50443 5.15486 10.0401 5.80776 10.0401ZM13.8016 10.0401C14.4712 10.0401 14.9986 9.51286 14.9986 8.84321C14.9986 8.18193 14.4629 7.64621 13.8016 7.64621C13.1571 7.64621 12.613 8.19864 12.613 8.84321C12.613 9.50443 13.1487 10.0401 13.8016 10.0401ZM1.81501 12.0575C2.30887 12.0575 2.69392 11.6641 2.69392 11.1702C2.69392 10.6764 2.30887 10.2829 1.81501 10.2829C1.32952 10.2829 0.927734 10.6847 0.927734 11.1702C0.927734 11.6641 1.32115 12.0575 1.81501 12.0575ZM9.80888 12.5681C10.5873 12.5681 11.2067 11.9486 11.2067 11.1702C11.2067 10.4001 10.5706 9.77229 9.80888 9.77229C9.04716 9.77229 8.41102 10.4085 8.41102 11.1702C8.41102 11.9319 9.03881 12.5681 9.80888 12.5681ZM17.7692 12.0575C18.2714 12.0575 18.6565 11.6724 18.6565 11.1702C18.6565 10.6764 18.2631 10.2829 17.7692 10.2829C17.2837 10.2829 16.8819 10.6847 16.8819 11.1702C16.8819 11.6641 17.2754 12.0575 17.7692 12.0575ZM5.80776 14.6942C6.4774 14.6942 7.00474 14.1669 7.00474 13.4972C7.00474 12.8359 6.46903 12.3002 5.80776 12.3002C5.16323 12.3002 4.61914 12.8443 4.61914 13.4972C4.61914 14.1501 5.15486 14.6942 5.80776 14.6942ZM13.8016 14.6942C14.4712 14.6942 14.9986 14.1669 14.9986 13.4972C14.9986 12.8359 14.4629 12.3002 13.8016 12.3002C13.1571 12.3002 12.613 12.8443 12.613 13.4972C12.613 14.1501 13.1487 14.6942 13.8016 14.6942ZM1.81501 16.6948C2.31724 16.6948 2.69392 16.3097 2.69392 15.8075C2.69392 15.322 2.30887 14.9286 1.81501 14.9286C1.32952 14.9286 0.927734 15.3304 0.927734 15.8075C0.927734 16.3014 1.32115 16.6948 1.81501 16.6948ZM9.80888 17.0044C10.4702 17.0044 10.9975 16.4771 10.9975 15.8075C10.9975 15.1546 10.4618 14.6189 9.80888 14.6189C9.16431 14.6189 8.61188 15.1629 8.61188 15.8075C8.61188 16.4687 9.14759 17.0044 9.80888 17.0044ZM17.7692 16.6948C18.2714 16.6948 18.6565 16.3181 18.6565 15.8075C18.6565 15.322 18.2631 14.9286 17.7692 14.9286C17.2837 14.9286 16.8819 15.3304 16.8819 15.8075C16.8819 16.3014 17.2754 16.6948 17.7692 16.6948ZM5.80776 19.0301C6.30999 19.0301 6.69503 18.6534 6.69503 18.1512C6.69503 17.6574 6.30162 17.2639 5.80776 17.2639C5.33063 17.2639 4.92048 17.6657 4.92048 18.1512C4.92048 18.6451 5.31389 19.0301 5.80776 19.0301ZM13.8016 19.0301C14.3039 19.0301 14.6889 18.6534 14.6889 18.1512C14.6889 17.6574 14.2954 17.2639 13.8016 17.2639C13.3245 17.2639 12.9143 17.6657 12.9143 18.1512C12.9143 18.6451 13.3077 19.0301 13.8016 19.0301ZM9.80888 21.3404C10.3111 21.3404 10.6878 20.9554 10.6878 20.4531C10.6878 19.9593 10.3027 19.5659 9.80888 19.5659C9.32338 19.5659 8.92159 19.9676 8.92159 20.4531C8.92159 20.947 9.31502 21.3404 9.80888 21.3404Z" fill="url(#paint0_radial_7114_64)"/>
</g>
<path d="M9.80888 2.87456C10.3676 2.87456 10.7878 2.44349 10.7878 1.88728C10.7878 1.33943 10.3592 0.9 9.80888 0.9C9.26815 0.9 8.82159 1.34656 8.82159 1.88728C8.82159 2.43637 9.25979 2.87456 9.80888 2.87456ZM5.80776 5.17645C6.36522 5.17645 6.79503 4.74664 6.79503 4.18917C6.79503 3.64009 6.35685 3.2019 5.80776 3.2019C5.27602 3.2019 4.82048 3.64785 4.82048 4.18917C4.82048 4.73826 5.25866 5.17645 5.80776 5.17645ZM13.8016 5.17645C14.3591 5.17645 14.7889 4.74663 14.7889 4.18917C14.7889 3.64008 14.3507 3.2019 13.8016 3.2019C13.2699 3.2019 12.8143 3.64784 12.8143 4.18917C12.8143 4.73827 13.2525 5.17645 13.8016 5.17645ZM1.81501 7.51183C2.37371 7.51183 2.79392 7.08076 2.79392 6.52456C2.79392 5.98446 2.36472 5.54565 1.81501 5.54565C1.27491 5.54565 0.827734 5.99159 0.827734 6.52456C0.827734 7.07364 1.26592 7.51183 1.81501 7.51183ZM9.80888 7.82154C10.5258 7.82154 11.0975 7.24897 11.0975 6.52456C11.0975 5.81642 10.517 5.23594 9.80888 5.23594C9.10117 5.23594 8.51188 5.82434 8.51188 6.52456C8.51188 7.24106 9.09236 7.82154 9.80888 7.82154ZM17.7692 7.51183C18.3267 7.51183 18.7565 7.08202 18.7565 6.52456C18.7565 5.97423 18.3171 5.54565 17.7692 5.54565C17.2291 5.54565 16.7819 5.99159 16.7819 6.52456C16.7819 7.07364 17.2202 7.51183 17.7692 7.51183ZM5.80776 10.1401C6.53262 10.1401 7.10474 9.56809 7.10474 8.84321C7.10474 8.1267 6.52426 7.54621 5.80776 7.54621C5.10709 7.54621 4.51914 8.14432 4.51914 8.84321C4.51914 9.5592 5.09917 10.1401 5.80776 10.1401ZM13.8016 10.1401C14.5265 10.1401 15.0986 9.56809 15.0986 8.84321C15.0986 8.1267 14.5181 7.54621 13.8016 7.54621C13.101 7.54621 12.513 8.14433 12.513 8.84321C12.513 9.5592 13.093 10.1401 13.8016 10.1401ZM1.81501 12.1575C2.36534 12.1575 2.79392 11.7181 2.79392 11.1702C2.79392 10.6224 2.36534 10.1829 1.81501 10.1829C1.27429 10.1829 0.827734 10.6295 0.827734 11.1702C0.827734 11.7193 1.26592 12.1575 1.81501 12.1575ZM9.80888 12.6681C10.6425 12.6681 11.3067 12.0039 11.3067 11.1702C11.3067 10.3445 10.6254 9.67229 9.80888 9.67229C8.99193 9.67229 8.31102 10.3533 8.31102 11.1702C8.31102 11.9868 8.98319 12.6681 9.80888 12.6681ZM17.7692 12.1575C18.3267 12.1575 18.7565 11.7277 18.7565 11.1702C18.7565 10.6211 18.3183 10.1829 17.7692 10.1829C17.2285 10.1829 16.7819 10.6295 16.7819 11.1702C16.7819 11.7193 17.2201 12.1575 17.7692 12.1575ZM5.80776 14.7942C6.53263 14.7942 7.10474 14.2221 7.10474 13.4972C7.10474 12.7807 6.52426 12.2002 5.80776 12.2002C5.10754 12.2002 4.51914 12.7895 4.51914 13.4972C4.51914 14.2045 5.09872 14.7942 5.80776 14.7942ZM13.8016 14.7942C14.5265 14.7942 15.0986 14.2221 15.0986 13.4972C15.0986 12.7807 14.5181 12.2002 13.8016 12.2002C13.1014 12.2002 12.513 12.7895 12.513 13.4972C12.513 14.2045 13.0926 14.7942 13.8016 14.7942ZM1.81501 16.7948C2.37372 16.7948 2.79392 16.3637 2.79392 15.8075C2.79392 15.2674 2.36472 14.8286 1.81501 14.8286C1.27491 14.8286 0.827734 15.2745 0.827734 15.8075C0.827734 16.3566 1.26592 16.7948 1.81501 16.7948ZM9.80888 17.1044C10.5258 17.1044 11.0975 16.5319 11.0975 15.8075C11.0975 15.0993 10.517 14.5189 9.80888 14.5189C9.10998 14.5189 8.51188 15.1068 8.51188 15.8075C8.51188 16.5239 9.09237 17.1044 9.80888 17.1044ZM17.7692 16.7948C18.3261 16.7948 18.7565 16.3739 18.7565 15.8075C18.7565 15.2662 18.3177 14.8286 17.7692 14.8286C17.2291 14.8286 16.7819 15.2745 16.7819 15.8075C16.7819 16.3566 17.2201 16.7948 17.7692 16.7948ZM5.80776 19.1301C6.36397 19.1301 6.79503 18.7099 6.79503 18.1512C6.79503 17.6021 6.35685 17.1639 5.80776 17.1639C5.27602 17.1639 4.82048 17.6099 4.82048 18.1512C4.82048 18.7015 5.2599 19.1301 5.80776 19.1301ZM13.8016 19.1301C14.3579 19.1301 14.7889 18.7099 14.7889 18.1512C14.7889 17.6021 14.3507 17.1639 13.8016 17.1639C13.2699 17.1639 12.8143 17.6099 12.8143 18.1512C12.8143 18.7015 13.2537 19.1301 13.8016 19.1301ZM9.80888 21.4404C10.3676 21.4404 10.7878 21.0093 10.7878 20.4531C10.7878 19.9053 10.3592 19.4659 9.80888 19.4659C9.26815 19.4659 8.82159 19.9124 8.82159 20.4531C8.82159 21.0022 9.25979 21.4404 9.80888 21.4404Z" stroke="url(#paint1_linear_7114_64)" stroke-width="0.2"/>
</g>
</g>
</g>
<defs>
<filter id="filter0_i_7114_64" x="0.728516" y="0.799805" width="18.5289" height="21.1407" filterUnits="userSpaceOnUse" color-interpolation-filters="sRGB">
<feFlood flood-opacity="0" result="BackgroundImageFix"/>
<feBlend mode="normal" in="SourceGraphic" in2="BackgroundImageFix" result="shape"/>
<feColorMatrix in="SourceAlpha" type="matrix" values="0 0 0 0 0 0 0 0 0 0 0 0 0 0 0 0 0 0 127 0" result="hardAlpha"/>
<feOffset dx="0.4" dy="0.4"/>
<feGaussianBlur stdDeviation="0.25"/>
<feComposite in2="hardAlpha" operator="arithmetic" k2="-1" k3="1"/>
<feColorMatrix type="matrix" values="0 0 0 0 0 0 0 0 0 0 0 0 0 0 0 0 0 0 1 0"/>
<feBlend mode="normal" in2="shape" result="effect1_innerShadow_7114_64"/>
</filter>
<radialGradient id="paint0_radial_7114_64" cx="0" cy="0" r="1" gradientUnits="userSpaceOnUse" gradientTransform="translate(9.79213 11.1702) rotate(90) scale(10.1702 8.86439)">
<stop stop-color="#B10000"/>
<stop offset="1" stop-color="#4B0000"/>
</radialGradient>
<linearGradient id="paint1_linear_7114_64" x1="9.79213" y1="1" x2="13" y2="20" gradientUnits="userSpaceOnUse">
<stop stop-color="#AEAEAE"/>
<stop offset="1" stop-color="#AEAEAE"/>
</linearGradient>
</defs>
</svg>
