<svg width="66" height="44" viewBox="0 0 66 44" fill="none" xmlns="http://www.w3.org/2000/svg">
<g id="RedEyesV3" clip-path="url(#clip0_4755_30234)">
<path id="Vector" d="M46.6555 19.6195C46.4993 19.3521 46.0923 19.4278 46.0438 19.7343C45.7634 21.483 45.1623 25.2242 45.115 25.4644C45.0523 25.7791 45.3043 34.7322 42.2778 38.7668C39.2512 42.8015 44.4844 36.9388 43.4751 26.1577C42.4659 15.3766 39.1885 19.1592 39.1885 19.1592C39.1885 19.1592 25.5074 31.6417 38.8738 43.9988C38.8738 43.9988 56.0369 35.6917 46.6567 19.6195H46.6555Z" fill="white"/>
<g id="Group">
<path id="Vector_2" d="M35.6161 29.6067L38.0026 35.577C38.0026 35.577 30.4007 37.7931 28.0391 26.644L35.6149 29.6067H35.6161Z" fill="#FF0000"/>
<path id="Vector_3" d="M50.6163 29.3215L47.4063 31.3128L46.293 35.1829C46.293 35.1829 50.072 36.1165 50.6163 29.3215Z" fill="#FF0000"/>
</g>
<path id="Vector_4" d="M22.5648 30.0244L-0.214844 18.5168C-0.214844 18.5168 10.2929 28.5963 22.5648 30.0244Z" fill="white"/>
<path id="Vector_5" d="M40.3998 11.1787L32.7754 0.233147C32.7754 0.233147 38.2251 5.63553 40.3998 11.1787Z" fill="white"/>
</g>
<defs>
<clipPath id="clip0_4755_30234">
<rect width="65.0833" height="44" fill="white"/>
</clipPath>
</defs>
</svg>
