<svg width="707" height="649" viewBox="0 0 707 649" fill="none" xmlns="http://www.w3.org/2000/svg">
<circle cx="142.86" cy="112.485" r="2" transform="rotate(-138 142.86 112.485)" fill="#D9D9D9"/>
<circle cx="216.786" cy="253.059" r="2" transform="rotate(-138 216.786 253.059)" fill="#D9D9D9"/>
<circle opacity="0.34" cx="109.985" cy="39.1526" r="1.5" transform="rotate(-138 109.985 39.1526)" fill="#D9D9D9"/>
<circle opacity="0.34" cx="287.291" cy="247.239" r="1.5" transform="rotate(-138 287.291 247.239)" fill="#D9D9D9"/>
<circle opacity="0.34" cx="347.032" cy="333.326" r="1.5" transform="rotate(-138 347.032 333.326)" fill="#D9D9D9"/>
<circle opacity="0.34" cx="406.774" cy="419.412" r="1.5" transform="rotate(-138 406.774 419.412)" fill="#D9D9D9"/>
<circle opacity="0.34" cx="68.6273" cy="168.774" r="1.5" transform="rotate(-138 68.6273 168.774)" fill="#D9D9D9"/>
<circle cx="327.232" cy="463.42" r="2" transform="rotate(42 327.232 463.42)" fill="#D9D9D9"/>
<circle cx="253.306" cy="322.847" r="2" transform="rotate(42 253.306 322.847)" fill="#D9D9D9"/>
<circle opacity="0.34" cx="360.107" cy="536.752" r="1.5" transform="rotate(42 360.107 536.752)" fill="#D9D9D9"/>
<circle opacity="0.34" cx="182.8" cy="328.666" r="1.5" transform="rotate(42 182.8 328.666)" fill="#D9D9D9"/>
<circle opacity="0.34" cx="123.06" cy="242.579" r="1.5" transform="rotate(42 123.06 242.579)" fill="#D9D9D9"/>
<circle opacity="0.34" cx="63.3181" cy="156.493" r="1.5" transform="rotate(42 63.3181 156.493)" fill="#D9D9D9"/>
<circle opacity="0.34" cx="401.465" cy="407.131" r="1.5" transform="rotate(42 401.465 407.131)" fill="#D9D9D9"/>
<circle cx="2" cy="2" r="2" transform="matrix(0.743145 -0.669131 -0.669131 -0.743145 244.158 124.498)" fill="#D9D9D9"/>
<circle opacity="0.34" cx="1.5" cy="1.5" r="1.5" transform="matrix(0.743145 -0.669131 -0.669131 -0.743145 173.689 117.973)" fill="#D9D9D9"/>
<circle opacity="0.34" cx="1.5" cy="1.5" r="1.5" transform="matrix(0.743145 -0.669131 -0.669131 -0.743145 113.949 204.06)" fill="#D9D9D9"/>
<circle opacity="0.34" cx="1.5" cy="1.5" r="1.5" transform="matrix(0.743145 -0.669131 -0.669131 -0.743145 54.207 290.146)" fill="#D9D9D9"/>
<circle opacity="0.34" cx="1.5" cy="1.5" r="1.5" transform="matrix(0.743145 -0.669131 -0.669131 -0.743145 392.354 39.5078)" fill="#D9D9D9"/>
<circle cx="383.959" cy="310.097" r="2" transform="rotate(-138 383.959 310.097)" fill="#D9D9D9"/>
<circle cx="457.885" cy="450.671" r="2" transform="rotate(-138 457.885 450.671)" fill="#D9D9D9"/>
<circle opacity="0.34" cx="351.084" cy="236.764" r="1.5" transform="rotate(-138 351.084 236.764)" fill="#D9D9D9"/>
<circle opacity="0.34" cx="528.391" cy="444.851" r="1.5" transform="rotate(-138 528.391 444.851)" fill="#D9D9D9"/>
<circle opacity="0.34" cx="588.131" cy="530.937" r="1.5" transform="rotate(-138 588.131 530.937)" fill="#D9D9D9"/>
<circle opacity="0.34" cx="647.873" cy="617.023" r="1.5" transform="rotate(-138 647.873 617.023)" fill="#D9D9D9"/>
<circle opacity="0.34" cx="309.727" cy="366.386" r="1.5" transform="rotate(-138 309.727 366.386)" fill="#D9D9D9"/>
<circle cx="77.9653" cy="232.096" r="2" transform="rotate(-138 77.9653 232.096)" fill="#D9D9D9"/>
<circle cx="151.891" cy="372.67" r="2" transform="rotate(-138 151.891 372.67)" fill="#D9D9D9"/>
<circle opacity="0.34" cx="45.0901" cy="158.764" r="1.5" transform="rotate(-138 45.0901 158.764)" fill="#D9D9D9"/>
<circle opacity="0.34" cx="222.397" cy="366.85" r="1.5" transform="rotate(-138 222.397 366.85)" fill="#D9D9D9"/>
<circle opacity="0.34" cx="282.137" cy="452.937" r="1.5" transform="rotate(-138 282.137 452.937)" fill="#D9D9D9"/>
<circle opacity="0.34" cx="341.879" cy="539.023" r="1.5" transform="rotate(-138 341.879 539.023)" fill="#D9D9D9"/>
<circle opacity="0.34" cx="3.73273" cy="288.386" r="1.5" transform="rotate(-138 3.73273 288.386)" fill="#D9D9D9"/>
<circle cx="2" cy="2" r="2" transform="matrix(-0.743145 0.669131 0.669131 0.743145 52.041 31.022)" fill="#D9D9D9"/>
<circle opacity="0.34" cx="1.5" cy="1.5" r="1.5" transform="matrix(-0.743145 0.669131 0.669131 0.743145 122.51 37.5479)" fill="#D9D9D9"/>
</svg>
